<?xml version="1.0" encoding="utf-8"?>
<!-- Generator: Adobe Illustrator 23.1.1, SVG Export Plug-In . SVG Version: 6.00 Build 0)  -->
<svg version="1.1" id="Layer_1" xmlns="http://www.w3.org/2000/svg" xmlns:xlink="http://www.w3.org/1999/xlink" x="0px" y="0px"
	 viewBox="0 0 1000 1000" style="enable-background:new 0 0 1000 1000;" xml:space="preserve">
<path style="fill:#70BFEB;" d="M94.32,63.12c-51.68,0-93.62,41.93-93.62,93.62v686.53c0,51.68,41.93,93.62,93.62,93.62h811.35
	c51.68,0,93.62-41.93,93.62-93.62V156.74c0-51.68-41.93-93.62-93.62-93.62H94.32z M94.32,125.53h206.74c6.44,0,11.7,5.27,11.7,11.7
	v39.01c0,6.44-5.27,11.7-11.7,11.7H74.82c-6.44,0-11.7-5.27-11.7-11.7v-19.5C63.12,139.57,77.16,125.53,94.32,125.53z
	 M925.18,312.76H74.82c-6.44,0-11.7-5.27-11.7-11.7v-70.21c0-6.44,5.27-11.7,11.7-11.7h269.15l58.9-88.35
	c2.15-3.32,5.85-5.27,9.75-5.27h493.05c17.16,0,31.21,14.04,31.21,31.21v144.33C936.88,307.5,931.62,312.76,925.18,312.76z
	 M500,827.66c-129.11,0-234.04-104.93-234.04-234.04S370.89,359.57,500,359.57S734.04,464.5,734.04,593.62S629.11,827.66,500,827.66
	z M500,421.99c-94.59,0-171.63,77.04-171.63,171.63S405.41,765.25,500,765.25s171.63-77.04,171.63-171.63S594.59,421.99,500,421.99z
	 M406.38,624.82c-17.16,0-31.21-14.04-31.21-31.21c0-68.85,55.98-124.82,124.82-124.82c17.16,0,31.21,14.04,31.21,31.21
	c0,17.16-14.04,31.21-31.21,31.21c-34.33,0-62.41,28.09-62.41,62.41C437.59,610.78,423.55,624.82,406.38,624.82z"/>
</svg>
