<?xml version="1.0" encoding="utf-8"?>
<!-- Generator: Adobe Illustrator 23.1.1, SVG Export Plug-In . SVG Version: 6.00 Build 0)  -->
<svg version="1.1" id="Layer_1" xmlns="http://www.w3.org/2000/svg" xmlns:xlink="http://www.w3.org/1999/xlink" x="0px" y="0px"
	 viewBox="0 0 1000 1000" style="enable-background:new 0 0 1000 1000;" xml:space="preserve">
<path style="fill:#70BFEB;" d="M928.57,392.86H607.14V71.43C607.14,31.99,575.16,0,535.71,0h-71.43
	c-39.44,0-71.43,31.99-71.43,71.43v321.43H71.43C31.99,392.86,0,424.84,0,464.29v71.43c0,39.44,31.99,71.43,71.43,71.43h321.43
	v321.43c0,39.44,31.99,71.43,71.43,71.43h71.43c39.44,0,71.43-31.99,71.43-71.43V607.14h321.43c39.44,0,71.43-31.99,71.43-71.43
	v-71.43C1000,424.84,968.01,392.86,928.57,392.86z"/>
</svg>
