<?xml version="1.0" encoding="utf-8"?>
<!-- Generator: Adobe Illustrator 24.0.0, SVG Export Plug-In . SVG Version: 6.00 Build 0)  -->
<svg version="1.1" id="Layer_1" xmlns="http://www.w3.org/2000/svg" xmlns:xlink="http://www.w3.org/1999/xlink" x="0px" y="0px"
	 viewBox="0 0 1000 1000" style="enable-background:new 0 0 1000 1000;" xml:space="preserve">
<title>diamond</title>
<g>
	
		<linearGradient id="SVGID_1_" gradientUnits="userSpaceOnUse" x1="931.075" y1="1077.6965" x2="814.0396" y2="1084.0211" gradientTransform="matrix(1 0 0 1 0 -600)">
		<stop  offset="0" style="stop-color:#F9ED32"/>
		<stop  offset="0.27" style="stop-color:#FAE330"/>
		<stop  offset="0.73" style="stop-color:#FCCA29"/>
		<stop  offset="1" style="stop-color:#FDB724"/>
	</linearGradient>
	
		<linearGradient id="SVGID_2_" gradientUnits="userSpaceOnUse" x1="138.5" y1="1099.9" x2="901.9" y2="1099.9" gradientTransform="matrix(1 0 0 1 0 -600)">
		<stop  offset="0.3" style="stop-color:#FFC421"/>
		<stop  offset="1" style="stop-color:#F99F28"/>
		<stop  offset="1" style="stop-color:#F5D435"/>
	</linearGradient>
	<ellipse style="fill:url(#SVGID_1_);stroke:url(#SVGID_2_);stroke-miterlimit:10;" cx="520.2" cy="499.9" rx="381.2" ry="437.9"/>
	<ellipse style="fill:#F9ED32;" cx="479.8" cy="500.1" rx="381.2" ry="437.9"/>
	
		<linearGradient id="SVGID_3_" gradientUnits="userSpaceOnUse" x1="153.8192" y1="1115.8335" x2="318.7341" y2="1107.4495" gradientTransform="matrix(1 0 0 1 0 -600)">
		<stop  offset="0" style="stop-color:#FFD11D"/>
		<stop  offset="1" style="stop-color:#F9ED32"/>
	</linearGradient>
	<ellipse style="fill:url(#SVGID_3_);" cx="463.3" cy="500.1" rx="321.3" ry="369"/>
	
		<linearGradient id="SVGID_4_" gradientUnits="userSpaceOnUse" x1="171.3" y1="1099.9" x2="813.9" y2="1099.9" gradientTransform="matrix(1 0 0 1 0 -600)">
		<stop  offset="0" style="stop-color:#F9ED32"/>
		<stop  offset="7.000000e-02" style="stop-color:#FAEA30"/>
		<stop  offset="0.61" style="stop-color:#FED822"/>
		<stop  offset="1" style="stop-color:#FFD11D"/>
	</linearGradient>
	<ellipse style="fill:url(#SVGID_4_);" cx="492.6" cy="499.9" rx="321.3" ry="369"/>
	<g>
		
			<linearGradient id="SVGID_5_" gradientUnits="userSpaceOnUse" x1="298.7973" y1="744.9367" x2="662.0384" y2="744.9367" gradientTransform="matrix(0.9969 7.900000e-02 -7.900000e-02 0.9969 57.5654 -307.0903)">
			<stop  offset="0" style="stop-color:#FFC421"/>
			<stop  offset="0.66" style="stop-color:#F99F28"/>
			<stop  offset="1" style="stop-color:#F5D435"/>
		</linearGradient>
		<polygon style="fill:url(#SVGID_5_);" points="595,659.4 482.1,595.2 386.6,650.4 369.7,660.2 390.3,522.4 299.3,424.9 
			424.9,403.9 481.1,278.5 538.1,403.4 663.8,423.5 573.4,521.7 		"/>
		<path style="fill:#E96F00;" d="M481.1,278.5l57,124.9l125.7,20.1l-90.4,98.2L595,659.4l-112.9-64.2l-95.5,55.2l-16.9,9.8
			l20.6-137.8l-91-97.5l125.6-21L481.1,278.5 M481.1,276.1l-0.9,2l-56,124.9l-125.1,20.9l-1.8,0.3l1.3,1.4l90.7,97.1l-20.5,137.3
			l-0.3,2.1l1.8-1l16.9-9.8l95-54.9l112.4,63.9l1.8,1l-0.3-2L574.5,522l90.1-97.8l1.3-1.4l-1.8-0.3l-125.2-20L482,278.1L481.1,276.1
			L481.1,276.1z"/>
	</g>
</g>
</svg>
