<?xml version="1.0" encoding="utf-8"?>
<!-- Generator: Adobe Illustrator 24.0.0, SVG Export Plug-In . SVG Version: 6.00 Build 0)  -->
<svg version="1.1" id="Layer_1" xmlns="http://www.w3.org/2000/svg" xmlns:xlink="http://www.w3.org/1999/xlink" x="0px" y="0px"
	 viewBox="0 0 1000 1000" style="enable-background:new 0 0 1000 1000;" xml:space="preserve">
<g id="Layer_2">
	<linearGradient id="SVGID_1_" gradientUnits="userSpaceOnUse" x1="93.0075" y1="503.2425" x2="906.9925" y2="503.2425">
		<stop  offset="0.1442" style="stop-color:#FFFFFF"/>
		<stop  offset="1" style="stop-color:#B6B7B7"/>
	</linearGradient>
	<polygon style="fill:url(#SVGID_1_);stroke:#666666;stroke-miterlimit:10;" points="331.3,74.1 156.9,143.8 93,314.1 499.5,932.4 
		907,314.1 842.9,143.8 668.5,74.1 	"/>
</g>
<g id="Layer_3">
	<g>
		
			<linearGradient id="SVGID_2_" gradientUnits="userSpaceOnUse" x1="850.7718" y1="153.2897" x2="187.6031" y2="153.2897" gradientTransform="matrix(1 0 0 1 0 2)">
			<stop  offset="0" style="stop-color:#6480C0"/>
			<stop  offset="1" style="stop-color:#71BFEB"/>
		</linearGradient>
		<polygon style="fill:url(#SVGID_2_);" points="334.2,88.8 168.4,155.1 333.9,221.1 665.5,221.8 831.6,155.1 665.8,88.8 		"/>
	</g>
	<g>
		
			<linearGradient id="SVGID_3_" gradientUnits="userSpaceOnUse" x1="169.0972" y1="187.8417" x2="295.9502" y2="372.9996" gradientTransform="matrix(1 0 0 1 0 2)">
			<stop  offset="0" style="stop-color:#6480C0"/>
			<stop  offset="1" style="stop-color:#71BFEB"/>
		</linearGradient>
		<polygon style="fill:url(#SVGID_3_);" points="168.4,155.1 109.5,312.2 296.9,395 333.9,221.1 		"/>
	</g>
	<g>
		
			<linearGradient id="SVGID_4_" gradientUnits="userSpaceOnUse" x1="332.1747" y1="386.7935" x2="703.5999" y2="224.6518" gradientTransform="matrix(1 0 0 1 0 2)">
			<stop  offset="0" style="stop-color:#6480C0"/>
			<stop  offset="1" style="stop-color:#71BFEB"/>
		</linearGradient>
		<polygon style="fill:url(#SVGID_4_);" points="296.9,395 702.2,394.2 665.5,221.8 333.9,221.1 		"/>
	</g>
	<g>
		
			<linearGradient id="SVGID_5_" gradientUnits="userSpaceOnUse" x1="665.5279" y1="272.6566" x2="890.519" y2="272.6566" gradientTransform="matrix(1 0 0 1 0 2)">
			<stop  offset="0" style="stop-color:#6480C0"/>
			<stop  offset="1" style="stop-color:#71BFEB"/>
		</linearGradient>
		<polygon style="fill:url(#SVGID_5_);" points="702.2,394.2 890.5,312.2 831.6,155.1 665.5,221.8 		"/>
	</g>
	<g>
		
			<linearGradient id="SVGID_6_" gradientUnits="userSpaceOnUse" x1="109.481" y1="603.7563" x2="500" y2="603.7563" gradientTransform="matrix(1 0 0 1 0 2)">
			<stop  offset="0" style="stop-color:#6480C0"/>
			<stop  offset="1" style="stop-color:#71BFEB"/>
		</linearGradient>
		<polygon style="fill:url(#SVGID_6_);" points="109.5,312.2 500,899.3 296.9,395 		"/>
	</g>
	<g>
		
			<linearGradient id="SVGID_7_" gradientUnits="userSpaceOnUse" x1="673.7856" y1="702.176" x2="355.7333" y2="451.0002" gradientTransform="matrix(1 0 0 1 0 2)">
			<stop  offset="0" style="stop-color:#6480C0"/>
			<stop  offset="1" style="stop-color:#71BFEB"/>
		</linearGradient>
		<polygon style="fill:url(#SVGID_7_);" points="296.9,395 702.2,394.2 500,899.3 		"/>
	</g>
	<g>
		
			<linearGradient id="SVGID_8_" gradientUnits="userSpaceOnUse" x1="727.7704" y1="483.3807" x2="547.9292" y2="830.0439" gradientTransform="matrix(1 0 0 1 0 2)">
			<stop  offset="0" style="stop-color:#6480C0"/>
			<stop  offset="1" style="stop-color:#71BFEB"/>
		</linearGradient>
		<polygon style="fill:url(#SVGID_8_);" points="702.2,394.2 890.5,312.2 500,899.3 		"/>
	</g>
</g>
<g id="Layer_3_copy">
	<g style="display:none;">
		
			<linearGradient id="SVGID_9_" gradientUnits="userSpaceOnUse" x1="850.7718" y1="153.2897" x2="187.6031" y2="153.2897" gradientTransform="matrix(1 0 0 1 0 2)">
			<stop  offset="0" style="stop-color:#6480C0"/>
			<stop  offset="1" style="stop-color:#71BFEB"/>
		</linearGradient>
		<polygon style="display:inline;fill:url(#SVGID_9_);" points="334.2,88.8 168.4,155.1 333.9,221.1 665.5,221.8 831.6,155.1 
			665.8,88.8 		"/>
	</g>
	<g>
		
			<linearGradient id="SVGID_10_" gradientUnits="userSpaceOnUse" x1="169.0972" y1="187.8417" x2="295.9502" y2="372.9996" gradientTransform="matrix(1 0 0 1 0 2)">
			<stop  offset="0" style="stop-color:#6480C0;stop-opacity:0"/>
			<stop  offset="1" style="stop-color:#FFFFFF;stop-opacity:0.7"/>
		</linearGradient>
		<polygon style="fill:url(#SVGID_10_);" points="168.4,155.1 109.5,312.2 296.9,395 333.9,221.1 		"/>
	</g>
	<g>
		
			<linearGradient id="SVGID_11_" gradientUnits="userSpaceOnUse" x1="332.1747" y1="386.7935" x2="703.5999" y2="224.6518" gradientTransform="matrix(1 0 0 1 0 2)">
			<stop  offset="0" style="stop-color:#FFFFFF;stop-opacity:0.7"/>
			<stop  offset="1" style="stop-color:#71BFEB;stop-opacity:0"/>
		</linearGradient>
		<polygon style="fill:url(#SVGID_11_);" points="296.9,395 702.2,394.2 665.5,221.8 333.9,221.1 		"/>
	</g>
	<g style="display:none;">
		
			<linearGradient id="SVGID_12_" gradientUnits="userSpaceOnUse" x1="665.5279" y1="272.6566" x2="890.519" y2="272.6566" gradientTransform="matrix(1 0 0 1 0 2)">
			<stop  offset="0" style="stop-color:#6480C0"/>
			<stop  offset="1" style="stop-color:#71BFEB"/>
		</linearGradient>
		<polygon style="display:inline;fill:url(#SVGID_12_);" points="702.2,394.2 890.5,312.2 831.6,155.1 665.5,221.8 		"/>
	</g>
	<g>
		
			<linearGradient id="SVGID_13_" gradientUnits="userSpaceOnUse" x1="358.2234" y1="531.7042" x2="221.9786" y2="715.2532" gradientTransform="matrix(1 0 0 1 0 2)">
			<stop  offset="0" style="stop-color:#FFFFFF;stop-opacity:0.5"/>
			<stop  offset="0.1639" style="stop-color:#E2F4FD;stop-opacity:0.4181"/>
			<stop  offset="0.564" style="stop-color:#A2D8F5;stop-opacity:0.218"/>
			<stop  offset="0.8532" style="stop-color:#7DC5EE;stop-opacity:7.340000e-02"/>
			<stop  offset="1" style="stop-color:#71BFEB;stop-opacity:0"/>
		</linearGradient>
		<polygon style="fill:url(#SVGID_13_);" points="109.5,312.2 500,899.3 296.9,395 		"/>
	</g>
	<g>
		
			<linearGradient id="SVGID_14_" gradientUnits="userSpaceOnUse" x1="673.7856" y1="702.176" x2="355.7333" y2="451.0002" gradientTransform="matrix(1 0 0 1 0 2)">
			<stop  offset="0" style="stop-color:#6480C0"/>
			<stop  offset="3.160000e-02" style="stop-color:#6785C3;stop-opacity:0"/>
			<stop  offset="1" style="stop-color:#FFFFFF;stop-opacity:0.6"/>
		</linearGradient>
		<polygon style="fill:url(#SVGID_14_);" points="296.9,395 702.2,394.2 500,899.3 		"/>
	</g>
	<g style="display:none;">
		
			<linearGradient id="SVGID_15_" gradientUnits="userSpaceOnUse" x1="727.7704" y1="483.3807" x2="547.9292" y2="830.0439" gradientTransform="matrix(1 0 0 1 0 2)">
			<stop  offset="0" style="stop-color:#6480C0"/>
			<stop  offset="1" style="stop-color:#71BFEB"/>
		</linearGradient>
		<polygon style="display:inline;fill:url(#SVGID_15_);" points="702.2,394.2 890.5,312.2 500,899.3 		"/>
	</g>
</g>
<g id="Layer_4_1_" style="opacity:0.62;">
	<g style="opacity:0.4;">
		
			<linearGradient id="SVGID_16_" gradientUnits="userSpaceOnUse" x1="665.7922" y1="198.4817" x2="890.519" y2="198.4817" gradientTransform="matrix(1 0 0 1 0 2)">
			<stop  offset="0" style="stop-color:#6480C0"/>
			<stop  offset="1" style="stop-color:#71BFEB"/>
		</linearGradient>
		<polygon style="fill:url(#SVGID_16_);" points="697.2,230.6 665.8,88.8 831.6,155.1 890.5,312.2 		"/>
	</g>
	<g style="opacity:0.4;">
		
			<linearGradient id="SVGID_17_" gradientUnits="userSpaceOnUse" x1="506.7137" y1="101.0523" x2="499.649" y2="244.7023" gradientTransform="matrix(1 0 0 1 0 2)">
			<stop  offset="0" style="stop-color:#6480C0"/>
			<stop  offset="1" style="stop-color:#71BFEB"/>
		</linearGradient>
		<polygon style="fill:url(#SVGID_17_);" points="665.8,88.8 697.2,230.6 303.7,230.6 334.2,88.8 		"/>
	</g>
	<g style="opacity:0.4;">
		
			<linearGradient id="SVGID_18_" gradientUnits="userSpaceOnUse" x1="109.481" y1="198.4817" x2="334.2078" y2="198.4817" gradientTransform="matrix(1 0 0 1 0 2)">
			<stop  offset="0" style="stop-color:#6480C0"/>
			<stop  offset="1" style="stop-color:#71BFEB"/>
		</linearGradient>
		<polygon style="fill:url(#SVGID_18_);" points="334.2,88.8 303.7,230.6 109.5,312.2 168.4,155.1 		"/>
	</g>
	<g style="opacity:0.4;">
		
			<linearGradient id="SVGID_19_" gradientUnits="userSpaceOnUse" x1="109.481" y1="562.9691" x2="500" y2="562.9691" gradientTransform="matrix(1 0 0 1 0 2)">
			<stop  offset="0" style="stop-color:#6480C0"/>
			<stop  offset="1" style="stop-color:#71BFEB"/>
		</linearGradient>
		<polygon style="fill:url(#SVGID_19_);" points="303.7,230.6 500,899.3 109.5,312.2 		"/>
	</g>
	<g style="opacity:0.4;">
		
			<linearGradient id="SVGID_20_" gradientUnits="userSpaceOnUse" x1="303.7274" y1="562.9691" x2="697.1535" y2="562.9691" gradientTransform="matrix(1 0 0 1 0 2)">
			<stop  offset="0" style="stop-color:#6480C0"/>
			<stop  offset="1" style="stop-color:#71BFEB"/>
		</linearGradient>
		<polygon style="fill:url(#SVGID_20_);" points="303.7,230.6 697.2,230.6 500,899.3 		"/>
	</g>
	<g style="opacity:0.4;">
		
			<linearGradient id="SVGID_21_" gradientUnits="userSpaceOnUse" x1="500" y1="562.9691" x2="890.519" y2="562.9691" gradientTransform="matrix(1 0 0 1 0 2)">
			<stop  offset="0" style="stop-color:#6480C0"/>
			<stop  offset="1" style="stop-color:#71BFEB"/>
		</linearGradient>
		<polygon style="fill:url(#SVGID_21_);" points="697.2,230.6 890.5,312.2 500,899.3 		"/>
	</g>
	<g style="display:none;opacity:0.4;">
		
			<linearGradient id="SVGID_22_" gradientUnits="userSpaceOnUse" x1="-495.6486" y1="245.5862" x2="167.4843" y2="245.5862" gradientTransform="matrix(1.1778 0 0 1.2298 693.256 10.3828)">
			<stop  offset="0" style="stop-color:#FFFFFF;stop-opacity:0.7"/>
			<stop  offset="0.19" style="stop-color:#FFFFFF;stop-opacity:0.59"/>
			<stop  offset="0.59" style="stop-color:#FFFFFF;stop-opacity:0.31"/>
			<stop  offset="1" style="stop-color:#FFFFFF;stop-opacity:0"/>
		</linearGradient>
		<polygon style="display:inline;fill:url(#SVGID_22_);" points="304.7,230.6 109.5,312.2 297.8,394.2 702.2,394.2 890.5,312.2 
			695.3,230.6 		"/>
	</g>
</g>
<g id="Layer_3_copy_2" style="opacity:0.35;">
	<g>
		<path style="fill:#FFFFFF;" d="M665.5,90.3l162.1,64.8l-162.4,65.2l-331.1-0.7l-161.8-64.5l162.1-64.8H665.5 M665.8,88.8H334.2
			l-165.8,66.3l165.5,66l331.6,0.7l166.1-66.7L665.8,88.8L665.8,88.8z"/>
	</g>
	<g>
		<path style="fill:#FFFFFF;" d="M169.3,157.1l163,64.9l-36.4,170.9l-184.6-81.5L169.3,157.1 M168.4,155.1l-58.9,157.1l187.5,82.7
			l37-173.9L168.4,155.1L168.4,155.1z"/>
	</g>
	<g>
		<path style="fill:#FFFFFF;" d="M335.1,222.5l329.2,0.7l36,169.5l-401.6,0.7L335.1,222.5 M333.9,221.1l-37,173.9l405.2-0.7
			l-36.7-172.4L333.9,221.1L333.9,221.1z"/>
	</g>
	<g>
		<path style="fill:#FFFFFF;" d="M830.7,157.1l58,154.3l-185.4,80.8l-36-169.5L830.7,157.1 M831.6,155.1l-166.1,66.7l36.6,172.4
			l188.3-82L831.6,155.1L831.6,155.1z"/>
	</g>
	<g>
		<path style="fill:#FFFFFF;" d="M113.4,315.6L295.8,396l197.5,490.5L113.4,315.6 M109.5,312.2L500,899.3L296.9,395L109.5,312.2
			L109.5,312.2z"/>
	</g>
	<g>
		<path style="fill:#FFFFFF;" d="M700,395.7L500,895.4l-200.9-499L700,395.7 M702.2,394.2l-405.2,0.7L500,899.3L702.2,394.2
			L702.2,394.2z"/>
	</g>
	<g>
		<path style="fill:#FFFFFF;" d="M886.6,315.5L506.7,886.6l196.6-491.3L886.6,315.5 M890.5,312.2l-188.3,82L500,899.3L890.5,312.2
			L890.5,312.2z"/>
	</g>
</g>
<g id="Layer_5_1_">
	
		<linearGradient id="SVGID_23_" gradientUnits="userSpaceOnUse" x1="-43.5031" y1="1649.8324" x2="58.6139" y2="1605.2543" gradientTransform="matrix(0.9601 -0.2797 0.2797 0.9601 -158.4177 -1166.8005)">
		<stop  offset="0" style="stop-color:#FFFFFF;stop-opacity:0.7"/>
		<stop  offset="1" style="stop-color:#FFFFFF;stop-opacity:0"/>
	</linearGradient>
	<polygon style="fill:url(#SVGID_23_);" points="316.6,456.1 293.5,406.6 240.5,419.4 289.9,396.3 277.2,343.2 300.3,392.7 
		353.3,380 303.9,403 	"/>
</g>
</svg>
