<?xml version="1.0" encoding="utf-8"?>
<!-- Generator: Adobe Illustrator 23.1.1, SVG Export Plug-In . SVG Version: 6.00 Build 0)  -->
<svg version="1.1" id="Layer_1" xmlns="http://www.w3.org/2000/svg" xmlns:xlink="http://www.w3.org/1999/xlink" x="0px" y="0px"
	 viewBox="0 0 1000 1000" style="enable-background:new 0 0 1000 1000;" xml:space="preserve">
<g>
	<g>
		<path style="fill:#70BFEB;" d="M890.55,131.1c14.01,0,27.3,4.46,36.44,12.24c4.59,3.91,10.07,10.27,10.07,18.36v506.07
			c0,6.32-3.58,12.84-10.07,18.36L740.85,844.47l-2.31,1.97c-7.51,6.4-15.27,13.02-22.34,17.64c-5.88,3.85-8.82,4.68-9.45,4.83
			H112.25c-11.95,0-24.66-5.7-34.86-15.63c-9.98-9.72-14.45-20.65-14.45-27.17V161.7c0-8.1,5.48-14.46,10.07-18.36
			c9.14-7.78,22.43-12.24,36.44-12.24H890.55 M890.55,71.1H109.45c-58.83,0-106.51,40.56-106.51,90.6V826.1
			c0,50.04,50.48,102.8,109.31,102.8H707.1c28.25,0,52.66-21.74,72.63-38.73l186.14-158.33c19.97-16.99,31.2-40.04,31.2-64.07V161.7
			C997.06,111.66,949.37,71.1,890.55,71.1L890.55,71.1z"/>
	</g>
	<path style="fill:none;stroke:#70BFEB;stroke-width:60;stroke-linecap:round;stroke-miterlimit:10;" d="M576.45,928.9"/>
	<path style="fill:none;stroke:#70BFEB;stroke-width:60;stroke-linecap:round;stroke-miterlimit:10;" d="M576.45,500"/>
	<path style="fill:none;stroke:#70BFEB;stroke-width:60;stroke-linecap:round;stroke-miterlimit:10;" d="M997.06,500"/>
</g>
<path style="fill:#70BFEB;" d="M554.65,520.96V928.9H707.1c28.25,0,52.66-21.74,72.63-38.73l186.14-158.33
	c19.97-16.99,31.2-40.04,31.2-64.07V520.96H554.65z"/>
<circle style="fill:#70BFEB;" cx="222.34" cy="332.83" r="60.63"/>
<circle style="fill:#70BFEB;" cx="734.98" cy="332.83" r="60.63"/>
<path style="fill:none;stroke:#70BFEB;stroke-width:60;stroke-linecap:round;stroke-miterlimit:10;" d="M282.97,580.17
	c0,0,236.77,298.03,391.37,0"/>
</svg>
