<?xml version="1.0" encoding="utf-8"?>
<!-- Generator: Adobe Illustrator 24.0.0, SVG Export Plug-In . SVG Version: 6.00 Build 0)  -->
<svg version="1.1" id="Layer_1" xmlns="http://www.w3.org/2000/svg" xmlns:xlink="http://www.w3.org/1999/xlink" x="0px" y="0px"
	 viewBox="0 0 1000 1000" style="enable-background:new 0 0 1000 1000;" xml:space="preserve">
<linearGradient id="SVGID_1_" gradientUnits="userSpaceOnUse" x1="44.1374" y1="500.0491" x2="955.9626" y2="500.0491">
	<stop  offset="0" style="stop-color:#FFFFFF"/>
	<stop  offset="0.1262" style="stop-color:#F5F5F5;stop-opacity:0.9495"/>
	<stop  offset="0.3428" style="stop-color:#D9D9D9;stop-opacity:0.8629"/>
	<stop  offset="0.6237" style="stop-color:#ACACAC;stop-opacity:0.7505"/>
	<stop  offset="0.9548" style="stop-color:#6F6F6F;stop-opacity:0.6181"/>
	<stop  offset="1" style="stop-color:#666666;stop-opacity:0.6"/>
</linearGradient>
<path style="display:none;fill:url(#SVGID_1_);stroke:#666666;stroke-width:3;stroke-miterlimit:10;" d="M64.7,898.9
	c-7.3,0-14.1-3.8-17.7-10.1c-3.8-6.4-3.8-14.2-0.1-20.5l430.7-756.7c3.7-6.4,10.4-10.3,17.7-10.4c7.4-0.1,14.2,3.8,17.8,10.1
	l440,751.4c3.8,6.4,3.8,14.2,0.1,20.5c-3.7,6.4-10.4,10.3-17.7,10.4L64.7,898.9L64.7,898.9z M495.6,162.9L100.2,857.5l799.5-4.7
	L495.6,162.9z"/>
<g id="Layer_2">
</g>
<g>
	<g>
		<linearGradient id="SVGID_2_" gradientUnits="userSpaceOnUse" x1="48.2666" y1="492.8979" x2="952.793" y2="492.8979">
			<stop  offset="0" style="stop-color:#FFFFFF"/>
			<stop  offset="0.1262" style="stop-color:#F5F5F5;stop-opacity:0.9495"/>
			<stop  offset="0.3428" style="stop-color:#D9D9D9;stop-opacity:0.8629"/>
			<stop  offset="0.6237" style="stop-color:#ACACAC;stop-opacity:0.7505"/>
			<stop  offset="0.9548" style="stop-color:#6F6F6F;stop-opacity:0.6181"/>
			<stop  offset="1" style="stop-color:#666666;stop-opacity:0.6"/>
		</linearGradient>
		<polygon style="fill:url(#SVGID_2_);" points="48.3,885.5 495.4,100.3 952.8,885.5 		"/>
		<path style="fill:#666666;" d="M495.4,101.3L951.9,885H49.1L495.4,101.3 M495.4,99.3L47.4,886h906.3L495.4,99.3L495.4,99.3z"/>
	</g>
	<g id="Layer_2_1_">
		<linearGradient id="SVGID_3_" gradientUnits="userSpaceOnUse" x1="297.4492" y1="399.6506" x2="290.5088" y2="859.1128">
			<stop  offset="0" style="stop-color:#39B54A"/>
			<stop  offset="1" style="stop-color:#006837"/>
		</linearGradient>
		<polygon style="fill:url(#SVGID_3_);" points="495.4,121.7 524.2,318.1 261.1,779.6 64.7,878.3 		"/>
		<linearGradient id="SVGID_4_" gradientUnits="userSpaceOnUse" x1="629.205" y1="604.8254" x2="904.6336" y2="261.7166">
			<stop  offset="0" style="stop-color:#39B54A"/>
			<stop  offset="1" style="stop-color:#006837"/>
		</linearGradient>
		<polygon style="fill:url(#SVGID_4_);" points="495.4,121.7 524.2,318.1 792.5,776.5 935.4,873.2 		"/>
		<linearGradient id="SVGID_5_" gradientUnits="userSpaceOnUse" x1="80.8862" y1="927.9055" x2="935.31" y2="760.2697">
			<stop  offset="0" style="stop-color:#39B54A"/>
			<stop  offset="1" style="stop-color:#006837"/>
		</linearGradient>
		<polygon style="fill:url(#SVGID_5_);" points="261.1,779.6 64.7,878.3 935.4,873.2 792.5,776.5 		"/>
		<linearGradient id="SVGID_6_" gradientUnits="userSpaceOnUse" x1="415.5408" y1="552.5575" x2="822.2769" y2="618.4341">
			<stop  offset="0" style="stop-color:#39B54A"/>
			<stop  offset="1" style="stop-color:#006837"/>
		</linearGradient>
		<polygon style="fill:url(#SVGID_6_);" points="524.2,318.1 261.1,779.6 792.5,776.5 		"/>
	</g>
	<g id="Layer_3" style="opacity:0.29;">
		<linearGradient id="SVGID_7_" gradientUnits="userSpaceOnUse" x1="64.7" y1="500" x2="495.4" y2="500">
			<stop  offset="0" style="stop-color:#39B54A"/>
			<stop  offset="1" style="stop-color:#006837"/>
		</linearGradient>
		<polygon style="fill:url(#SVGID_7_);" points="495.4,121.7 456.3,351.9 225,756 64.7,878.3 		"/>
		<linearGradient id="SVGID_8_" gradientUnits="userSpaceOnUse" x1="456.3" y1="497.45" x2="935.4" y2="497.45">
			<stop  offset="0" style="stop-color:#39B54A"/>
			<stop  offset="1" style="stop-color:#006837"/>
		</linearGradient>
		<polygon style="fill:url(#SVGID_8_);" points="495.4,121.7 456.3,351.9 689.7,752.9 935.4,873.2 		"/>
		<linearGradient id="SVGID_9_" gradientUnits="userSpaceOnUse" x1="880.8094" y1="684.7582" x2="81.4723" y2="1030.0146">
			<stop  offset="0.2237" style="stop-color:#39B54A"/>
			<stop  offset="0.3409" style="stop-color:#2FA847"/>
			<stop  offset="0.7796" style="stop-color:#0D7A3B"/>
			<stop  offset="1" style="stop-color:#006837"/>
		</linearGradient>
		<polygon style="fill:url(#SVGID_9_);" points="225,756 64.7,878.3 935.4,873.2 689.7,752.9 		"/>
		<linearGradient id="SVGID_10_" gradientUnits="userSpaceOnUse" x1="450.1108" y1="626.8137" x2="52.6465" y2="867.4921">
			<stop  offset="0" style="stop-color:#39B54A"/>
			<stop  offset="1" style="stop-color:#006837"/>
		</linearGradient>
		<polygon style="fill:url(#SVGID_10_);" points="456.3,351.9 225,756 689.7,752.9 		"/>
	</g>
	<g id="Layer_2_copy_2">
		<linearGradient id="SVGID_11_" gradientUnits="userSpaceOnUse" x1="480.6269" y1="256.0911" x2="198.718" y2="774.1121">
			<stop  offset="0" style="stop-color:#FFFFFF;stop-opacity:0.4"/>
			<stop  offset="1" style="stop-color:#000000;stop-opacity:0"/>
		</linearGradient>
		<polygon style="fill:url(#SVGID_11_);" points="495.4,121.7 524.2,318.1 261.1,779.6 64.7,878.3 		"/>
		<linearGradient id="SVGID_12_" gradientUnits="userSpaceOnUse" x1="558.2785" y1="300.5793" x2="779.3927" y2="680.965">
			<stop  offset="2.120000e-02" style="stop-color:#FFFFFF;stop-opacity:0.4"/>
			<stop  offset="0.1892" style="stop-color:#FFFFFF;stop-opacity:0"/>
			<stop  offset="1" style="stop-color:#000000;stop-opacity:0"/>
		</linearGradient>
		<polygon style="fill:url(#SVGID_12_);" points="495.4,121.7 524.2,318.1 792.5,776.5 935.4,873.2 		"/>
		<linearGradient id="SVGID_13_" gradientUnits="userSpaceOnUse" x1="528.5178" y1="324.6454" x2="526.5042" y2="856.116">
			<stop  offset="0" style="stop-color:#FFFFFF;stop-opacity:0.6"/>
			<stop  offset="1" style="stop-color:#000000;stop-opacity:0"/>
		</linearGradient>
		<polygon style="fill:url(#SVGID_13_);" points="524.2,318.1 261.1,779.6 792.5,776.5 		"/>
	</g>
	<g id="Layer_2_copy" style="opacity:0.28;">
		<g>
			<path style="fill:#FFFFFF;" d="M495.9,127.7L930,869.8l-859.8,4.9L495.9,127.7 M495.8,121.6l-431,756.3l870.5-5L495.8,121.6
				L495.8,121.6z"/>
		</g>
		<g style="display:none;">
			<path style="display:inline;fill:#FFFFFF;" d="M524.3,324.3l263,449.6l-520.9,2.9L524.3,324.3 M524.3,318.1L261.1,779.9l531.5-3
				L524.3,318.1L524.3,318.1z"/>
		</g>
		<g>
			<path style="fill:#FFFFFF;" d="M493.7,131L521,317.5L258.8,777.3L72.4,870.9L493.7,131 M495.4,121.7L64.7,878.3l196.4-98.7
				L524.3,318L495.4,121.7L495.4,121.7z"/>
		</g>
		<g>
			<path style="fill:#FFFFFF;" d="M500.8,137l425.1,726l-131.1-88.6L527.2,317L500.8,137 M495.4,121.7L524.3,318l268.3,458.5
				l142.9,96.6L495.4,121.7L495.4,121.7z"/>
		</g>
		<g>
			<path style="fill:#FFFFFF;" d="M791.6,779.6l133.8,90.6l-847.6,5l183.9-92.4L791.6,779.6 M792.5,776.5L261,779.6L64.7,878.3
				l870.7-5.2L792.5,776.5L792.5,776.5z"/>
		</g>
		<g>
			<path style="fill:#FFFFFF;" d="M524.3,324.2l262.9,449.2l-520.8,3L524.3,324.2 M524.2,318.1L261.1,779.6l531.5-3.1L524.2,318.1
				L524.2,318.1z"/>
		</g>
	</g>
	<g id="Layer_8">
		<polygon style="opacity:0.26;fill:#FFFFFF;enable-background:new    ;" points="482.5,358.3 512.1,323.8 511.1,278.3 526.3,321.2 
			566.2,343.1 521.4,334.8 		"/>
	</g>
</g>
</svg>
