<?xml version="1.0" encoding="utf-8"?>
<!-- Generator: Adobe Illustrator 24.0.0, SVG Export Plug-In . SVG Version: 6.00 Build 0)  -->
<svg version="1.1" id="Layer_1" xmlns="http://www.w3.org/2000/svg" xmlns:xlink="http://www.w3.org/1999/xlink" x="0px" y="0px"
	 viewBox="0 0 1000 1000" style="enable-background:new 0 0 1000 1000;" xml:space="preserve">
<path style="fill:#FFFFFF;" d="M958.3,166.7H777.8V97.2c0-23.1-18.6-41.7-41.7-41.7H263.9c-23.1,0-41.7,18.6-41.7,41.7v69.4H41.7
	C18.6,166.7,0,185.2,0,208.3v97.2c0,62,39.1,125.7,107.5,174.8c54.7,39.4,121.2,64.4,191,72.4c54.5,90.5,118.2,127.8,118.2,127.8
	v125h-83.3c-61.3,0-111.1,35.9-111.1,97.2v20.8c0,11.5,9.4,20.8,20.8,20.8h513.9c11.5,0,20.8-9.4,20.8-20.8v-20.8
	c0-61.3-49.8-97.2-111.1-97.2h-83.3v-125c0,0,63.7-37.3,118.2-127.8c70-8,136.5-33,191-72.4c68.2-49.1,107.5-112.8,107.5-174.8
	v-97.2C1000,185.2,981.4,166.7,958.3,166.7z M172.4,390.3c-42.4-30.6-61.3-64.6-61.3-84.7v-27.8h111.5
	c1.7,56.6,10.1,106.2,22.2,149.7C218.6,418.4,194.1,405.9,172.4,390.3z M888.9,305.6c0,28-30.7,62.7-61.3,84.7
	c-21.7,15.6-46.4,28.1-72.6,37.2c12.2-43.4,20.5-93.1,22.2-149.7h111.6V305.6z"/>
</svg>
