<?xml version="1.0" encoding="utf-8"?>
<!-- Generator: Adobe Illustrator 24.0.0, SVG Export Plug-In . SVG Version: 6.00 Build 0)  -->
<svg version="1.1" id="Layer_1" xmlns="http://www.w3.org/2000/svg" xmlns:xlink="http://www.w3.org/1999/xlink" x="0px" y="0px"
	 viewBox="0 0 1000 1000" style="enable-background:new 0 0 1000 1000;" xml:space="preserve">
<path style="fill:#FFFFFF;" d="M957.4,617.8l-84.2-48.6c8.5-45.9,8.5-92.9,0-138.8l84.2-48.6c9.7-5.5,14-17,10.9-27.7
	c-21.9-70.4-59.3-134-108.1-187c-7.5-8.1-19.8-10.1-29.3-4.5l-84.2,48.6c-35.4-30.4-76.1-54-120.2-69.4V44.7
	c0-11.1-7.7-20.8-18.6-23.1c-72.6-16.2-146.9-15.4-215.9,0c-10.9,2.4-18.6,12.1-18.6,23.1V142c-43.9,15.6-84.6,39.1-120.2,69.4
	l-84-48.6c-9.7-5.5-21.7-3.8-29.3,4.5C91,220.1,53.7,283.7,31.7,354.3c-3.4,10.7,1.2,22.1,10.9,27.7l84.2,48.6
	c-8.5,45.9-8.5,92.9,0,138.8L42.6,618c-9.7,5.5-14,17-10.9,27.7c21.9,70.4,59.3,134,108.1,187c7.5,8.1,19.8,10.1,29.3,4.5l84.2-48.6
	c35.4,30.4,76.1,54,120.2,69.4v97.3c0,11.1,7.7,20.8,18.6,23.1c72.6,16.2,146.9,15.4,215.9,0c10.9-2.4,18.6-12.1,18.6-23.1V858
	c43.9-15.6,84.6-39.1,120.2-69.4l84.2,48.6c9.7,5.5,21.7,3.8,29.3-4.5c48.8-52.8,86.2-116.4,108.1-187
	C971.4,634.8,967.1,623.4,957.4,617.8z M499.9,658c-87.2,0-158.2-71-158.2-158.2s71-158.2,158.2-158.2s158.2,71,158.2,158.2
	S587.1,658,499.9,658z"/>
</svg>
