<?xml version="1.0" encoding="utf-8"?>
<!-- Generator: Adobe Illustrator 24.0.0, SVG Export Plug-In . SVG Version: 6.00 Build 0)  -->
<svg version="1.1" id="Layer_1" xmlns="http://www.w3.org/2000/svg" xmlns:xlink="http://www.w3.org/1999/xlink" x="0px" y="0px"
	 viewBox="0 0 1000 1000" style="enable-background:new 0 0 1000 1000;" xml:space="preserve">
<path id="share-alt" style="fill:#FFFFFF;" d="M730,624.7c-42.4,0-83.6,14.4-116.7,40.8L413.1,540.5c5.9-26.8,5.9-54.6,0-81.5
	l200.1-125.1c81,64.3,198.8,50.9,263.1-30.1S927.2,105,846.2,40.7S647.4-10.2,583.1,70.8c-35.1,44.2-48.4,101.9-36.2,157.1
	L346.8,352.9c-81.1-64.5-199.1-51.1-263.6,29.9S32,582,113,646.5c68.4,54.5,165.3,54.5,233.7,0l200.1,125.1
	C524.4,872.7,588.1,973,689.2,995.5s201.4-41.2,223.9-142.4s-41.2-201.4-142.4-223.9C757.4,626.2,743.7,624.7,730,624.7z"/>
</svg>
