<?xml version="1.0" encoding="utf-8"?>
<!-- Generator: Adobe Illustrator 24.0.0, SVG Export Plug-In . SVG Version: 6.00 Build 0)  -->
<svg version="1.1" id="Layer_1" xmlns="http://www.w3.org/2000/svg" xmlns:xlink="http://www.w3.org/1999/xlink" x="0px" y="0px"
	 viewBox="0 0 1000 1000" style="enable-background:new 0 0 1000 1000;" xml:space="preserve">
<path style="fill:#FFFFFF;" d="M900.4,250.1H156.2c-17.3,0-31.2-14-31.2-31.2s14-31.2,31.2-31.2h749.7c17.3,0,31.2-14,31.2-31.2
	c0-51.8-42-93.7-93.7-93.7H124.9C55.9,62.7,0,118.6,0,187.6v624.7c0,69,55.9,124.9,124.9,124.9h775.4c54.7,0,99.2-42,99.2-93.7
	V343.8C999.6,292.1,955.1,250.1,900.4,250.1z M812.2,656.2c-34.5,0-62.5-28-62.5-62.5c0-34.5,28-62.5,62.5-62.5
	c34.5,0,62.5,28,62.5,62.5C874.6,628.2,846.6,656.2,812.2,656.2z"/>
</svg>
